# xmcd
#
# Track frame offsets: 
#        150
#        17400
#        31800
#        43950
#        68025
#        72300
#        84075
#        101475
#        124050
#        151275
#        165675
#        189075
#        217350
#        234375
#        238575
#        254925
#        269475
#        286200
#        307275
#
# Disc length: 4166 seconds
#
# Revision: 0
# Processed by: cddbd v1.5.2PL0 Copyright (c) Steve Scherf et al.
# Submitted via: ExactAudioCopy v0.99pb4
#
DISCID=11104413
DTITLE=Ripoff Raskolnikov - Matyas Pribojszki - Room For Two
DYEAR=2009
DGENRE=Blues
TTITLE0=Antidote
TTITLE1=Autumn light
TTITLE2=Get away from that woman
TTITLE3=Far side of town
TTITLE4=Running home to my baby
TTITLE5=Good boy at heart
TTITLE6=Hard working man
TTITLE7=My lucky day
TTITLE8=Leaving on the morrow
TTITLE9=Budapest boogie
TTITLE10=No easy rider
TTITLE11=Land of the righteous
TTITLE12=Sweet little rider
TTITLE13=Sleepwalk
TTITLE14=Love is fake
TTITLE15=Poor lonesome pilgrim
TTITLE16=Mr. Landlord
TTITLE17=Customer blues
TTITLE18=Last call
EXTD=
EXTT0=
EXTT1=
EXTT2=
EXTT3=
EXTT4=
EXTT5=
EXTT6=
EXTT7=
EXTT8=
EXTT9=
EXTT10=
EXTT11=
EXTT12=
EXTT13=
EXTT14=
EXTT15=
EXTT16=
EXTT17=
EXTT18=
PLAYORDER=
